<svg viewBox="0 0 1512 982" xmlns="http://www.w3.org/2000/svg">
  <rect x="0" y="0" width="1512" height="982" fill="#ffffff"/>
  <path d="M756.0 520.0 L 0.0 0.0 M 756.0 520.0 L 72.0 0.0 M 756.0 520.0 L 144.0 0.0 M 756.0 520.0 L 216.0 0.0 M 756.0 520.0 L 288.0 0.0 M 756.0 520.0 L 360.0 0.0 M 756.0 520.0 L 432.0 0.0 M 756.0 520.0 L 504.0 0.0 M 756.0 520.0 L 576.0 0.0 M 756.0 520.0 L 648.0 0.0 M 756.0 520.0 L 720.0 0.0 M 756.0 520.0 L 792.0 0.0 M 756.0 520.0 L 864.0 0.0 M 756.0 520.0 L 936.0 0.0 M 756.0 520.0 L 1008.0 0.0 M 756.0 520.0 L 1080.0 0.0 M 756.0 520.0 L 1152.0 0.0 M 756.0 520.0 L 1224.0 0.0 M 756.0 520.0 L 1296.0 0.0 M 756.0 520.0 L 1368.0 0.0 M 756.0 520.0 L 1440.0 0.0 M 756.0 520.0 L 1512.0 0.0 M 756.0 520.0 L 1512.0 72.0 M 756.0 520.0 L 1512.0 144.0 M 756.0 520.0 L 1512.0 216.0 M 756.0 520.0 L 1512.0 288.0 M 756.0 520.0 L 1512.0 360.0 M 756.0 520.0 L 1512.0 432.0 M 756.0 520.0 L 1512.0 504.0 M 756.0 520.0 L 1512.0 576.0 M 756.0 520.0 L 1512.0 648.0 M 756.0 520.0 L 1512.0 720.0 M 756.0 520.0 L 1512.0 792.0 M 756.0 520.0 L 1512.0 864.0 M 756.0 520.0 L 1512.0 936.0 M 756.0 520.0 L 1440.0 982.0 M 756.0 520.0 L 1368.0 982.0 M 756.0 520.0 L 1296.0 982.0 M 756.0 520.0 L 1224.0 982.0 M 756.0 520.0 L 1152.0 982.0 M 756.0 520.0 L 1080.0 982.0 M 756.0 520.0 L 1008.0 982.0 M 756.0 520.0 L 936.0 982.0 M 756.0 520.0 L 864.0 982.0 M 756.0 520.0 L 792.0 982.0 M 756.0 520.0 L 720.0 982.0 M 756.0 520.0 L 648.0 982.0 M 756.0 520.0 L 576.0 982.0 M 756.0 520.0 L 504.0 982.0 M 756.0 520.0 L 432.0 982.0 M 756.0 520.0 L 360.0 982.0 M 756.0 520.0 L 288.0 982.0 M 756.0 520.0 L 216.0 982.0 M 756.0 520.0 L 144.0 982.0 M 756.0 520.0 L 72.0 982.0 M 756.0 520.0 L 0.0 982.0 M 756.0 520.0 L 0.0 910.0 M 756.0 520.0 L 0.0 838.0 M 756.0 520.0 L 0.0 766.0 M 756.0 520.0 L 0.0 694.0 M 756.0 520.0 L 0.0 622.0 M 756.0 520.0 L 0.0 550.0 M 756.0 520.0 L 0.0 478.0 M 756.0 520.0 L 0.0 406.0 M 756.0 520.0 L 0.0 334.0 M 756.0 520.0 L 0.0 262.0 M 756.0 520.0 L 0.0 190.0 M 756.0 520.0 L 0.0 118.0" stroke="#DCDCDC" stroke-width="1" fill="none"/>
  <path d="M 710.6 488.8 L 801.4 488.8 L 801.4 547.7 L 710.6 547.7 Z M 665.3 457.6 L 846.7 457.6 L 846.7 575.4 L 665.3 575.4 Z M 619.9 426.4 L 892.1 426.4 L 892.1 603.2 L 619.9 603.2 Z M 574.6 395.2 L 937.4 395.2 L 937.4 630.9 L 574.6 630.9 Z M 529.2 364.0 L 982.8 364.0 L 982.8 658.6 L 529.2 658.6 Z M 483.8 332.8 L 1028.2 332.8 L 1028.2 686.3 L 483.8 686.3 Z M 438.5 301.6 L 1073.5 301.6 L 1073.5 714.0 L 438.5 714.0 Z M 393.1 270.4 L 1118.9 270.4 L 1118.9 741.8 L 393.1 741.8 Z M 347.8 239.2 L 1164.2 239.2 L 1164.2 769.5 L 347.8 769.5 Z M 302.4 208.0 L 1209.6 208.0 L 1209.6 797.2 L 302.4 797.2 Z M 257.0 176.8 L 1255.0 176.8 L 1255.0 824.9 L 257.0 824.9 Z M 211.7 145.6 L 1300.3 145.6 L 1300.3 852.6 L 211.7 852.6 Z M 166.3 114.4 L 1345.7 114.4 L 1345.7 880.4 L 166.3 880.4 Z M 121.0 83.2 L 1391.0 83.2 L 1391.0 908.1 L 121.0 908.1 Z M 75.6 52.0 L 1436.4 52.0 L 1436.4 935.8 L 75.6 935.8 Z" stroke="#DCDCDC" stroke-width="1" fill="none"/>
</svg>
